<?xml version="1.0" encoding="utf-8"?>
<!-- Generator: Adobe Illustrator 16.0.0, SVG Export Plug-In . SVG Version: 6.00 Build 0)  -->
<!DOCTYPE svg PUBLIC "-//W3C//DTD SVG 1.1//EN" "http://www.w3.org/Graphics/SVG/1.1/DTD/svg11.dtd">
<svg version="1.1" id="Capa_1" xmlns="http://www.w3.org/2000/svg" xmlns:xlink="http://www.w3.org/1999/xlink" x="0px" y="0px"
	 width="377.082px" height="12.021px" viewBox="0 0 377.082 12.021" enable-background="new 0 0 377.082 12.021"
	 xml:space="preserve">
<polygon fill="#4D2E5D" points="0,-0.021 44,-0.021 54,11.979 0,11.979 "/>
<polygon fill="#4D2E5D" points="358,-0.021 406,-0.021 416,11.979 358,11.979 "/>
<polygon fill="#A38BB0" points="43,-0.021 101,-0.021 91,11.979 53,11.979 "/>
<polygon fill="#856496" points="100,-0.021 138,-0.021 158,11.979 90,11.979 "/>
<polygon fill="#E0D8E5" points="137,-0.021 182,-0.021 185,11.979 157,11.979 "/>
<polygon fill="#331F3E" points="181,-0.021 238,-0.021 232,11.979 184,11.979 "/>
<polygon fill="#A38BB0" points="237,-0.021 279,-0.021 284,11.979 231,11.979 "/>
<polygon fill="#856496" points="278,-0.021 331,-0.021 326,11.979 283,11.979 "/>
<polygon fill="#E0D8E5" points="330,-0.021 377,-0.021 367,11.979 325,11.979 "/>
</svg>
