<?xml version="1.0" encoding="utf-8"?>
<!-- Generator: Adobe Illustrator 16.0.0, SVG Export Plug-In . SVG Version: 6.00 Build 0)  -->
<!DOCTYPE svg PUBLIC "-//W3C//DTD SVG 1.1//EN" "http://www.w3.org/Graphics/SVG/1.1/DTD/svg11.dtd">
<svg version="1.1" id="Capa_1" xmlns="http://www.w3.org/2000/svg" xmlns:xlink="http://www.w3.org/1999/xlink" x="0px" y="0px"
	 width="100px" height="100px" viewBox="0 0 100 100" enable-background="new 0 0 100 100" xml:space="preserve">
<g>
	<path fill="#FFFFFF" d="M79.739,95.554H20.592c-8.828,0-16.01-7.182-16.01-16.01V20.396c0-8.828,7.182-16.01,16.01-16.01h59.147
		c8.828,0,16.01,7.182,16.01,16.01v59.148C95.749,88.372,88.567,95.554,79.739,95.554z M20.592,9.722
		c-5.885,0-10.673,4.788-10.673,10.673v59.148c0,5.884,4.788,10.673,10.673,10.673h59.147c5.887,0,10.673-4.789,10.673-10.673
		V20.396c0-5.885-4.786-10.673-10.673-10.673H20.592z"/>
</g>
<g>
	<rect x="7.028" y="29.289" fill="#FFFFFF" width="86.053" height="5.336"/>
</g>
<g>
	<path fill="#FFFFFF" d="M22.955,19.95c0,1.888-1.531,3.418-3.419,3.418l0,0c-1.888,0-3.419-1.531-3.419-3.418l0,0
		c0-1.888,1.531-3.419,3.419-3.419l0,0C21.423,16.531,22.955,18.062,22.955,19.95L22.955,19.95z"/>
</g>
<g>
	<path fill="#FFFFFF" d="M35.462,19.95c0,1.888-1.531,3.418-3.418,3.418l0,0c-1.888,0-3.419-1.531-3.419-3.418l0,0
		c0-1.888,1.531-3.419,3.419-3.419l0,0C33.931,16.531,35.462,18.062,35.462,19.95L35.462,19.95z"/>
</g>
<g>
	<path fill="#FFFFFF" d="M47.97,19.95c0,1.888-1.531,3.418-3.419,3.418l0,0c-1.888,0-3.418-1.531-3.418-3.418l0,0
		c0-1.888,1.531-3.419,3.418-3.419l0,0C46.439,16.531,47.97,18.062,47.97,19.95L47.97,19.95z"/>
</g>
</svg>
