<?xml version="1.0" encoding="utf-8"?>
<!-- Generator: Adobe Illustrator 16.0.0, SVG Export Plug-In . SVG Version: 6.00 Build 0)  -->
<!DOCTYPE svg PUBLIC "-//W3C//DTD SVG 1.1//EN" "http://www.w3.org/Graphics/SVG/1.1/DTD/svg11.dtd">
<svg version="1.1" id="Capa_1" xmlns="http://www.w3.org/2000/svg" xmlns:xlink="http://www.w3.org/1999/xlink" x="0px" y="0px"
	 width="100px" height="100px" viewBox="0 0 100 100" enable-background="new 0 0 100 100" xml:space="preserve">
<rect x="29" y="19" fill-rule="evenodd" clip-rule="evenodd" fill="#4C4E4E" width="40" height="22"/>
<g>
	<path fill-rule="evenodd" clip-rule="evenodd" fill="#01A29A" d="M16.124,84.073c-0.382-0.475-0.731-0.982-1.15-1.424
		C0.848,67.794-2.113,44.957,7.914,27.085c7.557-13.47,19.021-21.868,34.277-24.089c19.05-2.773,34.654,3.812,46.181,19.347
		c7.287,9.822,9.991,21.011,8.684,33.117c-1.086,10.051-5.221,18.818-11.946,26.322c-9.666,10.783-21.881,16-36.284,15.855
		c-11.284-0.111-21.279-4.02-29.981-11.215c-0.253-0.207-0.527-0.389-0.791-0.584C17.409,85.251,16.767,84.663,16.124,84.073z
		 M38.681,32.142c-0.015,0.438-0.029,0.875-0.044,1.312c-4.482,0.025-8.965,0.049-13.446,0.076c-1.814,0.011-3.104,1.266-3.109,3.07
		c-0.014,3.54-0.046,7.08,0.021,10.618c0.022,1.254,0.193,2.552,1.398,3.364c-0.001,0.568-0.003,1.137-0.003,1.706
		c0,5.92-0.008,11.84,0.005,17.76c0.005,2.287,0.932,3.26,3.091,3.27c3.03,0.014,6.061,0.002,9.091,0.002
		c12.408-0.004,24.816,0,37.225-0.016c1.935-0.004,2.874-0.92,2.877-2.846c0.011-6.535-0.019-13.07-0.031-19.606
		c1.163-1.131,1.52-2.494,1.474-4.113c-0.095-3.355-0.027-6.715-0.029-10.073c-0.001-1.931-1.2-3.129-3.141-3.136
		c-4.445-0.017-8.891-0.031-13.336-0.046c-0.022-0.456-0.044-0.911-0.065-1.366c0.021-0.989,0.113-1.982,0.049-2.965
		c-0.094-1.43-1.183-2.454-2.581-2.458c-5.662-0.015-11.323-0.024-16.983,0.033c-0.578,0.006-1.264,0.348-1.704,0.748
		C37.98,28.797,38.698,30.543,38.681,32.142z"/>
	<path fill-rule="evenodd" clip-rule="evenodd" fill="#666767" d="M60.722,33.483c4.445,0.015,8.891,0.029,13.336,0.046
		c1.94,0.007,3.14,1.205,3.141,3.136c0.002,3.358-0.065,6.718,0.029,10.073c0.046,1.619-0.311,2.982-1.474,4.113
		c-1.433,0.445-2.875,0.864-4.297,1.34c-5.705,1.918-11.556,3.027-17.577,3.211c-0.003-0.281-0.021-0.562-0.007-0.842
		c0.06-1.264-0.379-1.912-1.801-1.771c-1.266,0.125-2.552,0.025-3.829,0.025c-2.634-0.002-2.634-0.004-2.817,2.58
		c-1.03-0.088-2.061-0.174-3.092-0.264c-6.508-0.564-12.815-1.959-18.834-4.549c-1.205-0.812-1.376-2.11-1.398-3.364
		c-0.066-3.538-0.034-7.078-0.021-10.618c0.006-1.804,1.295-3.059,3.109-3.07c4.481-0.027,8.964-0.051,13.446-0.076
		c0.927,0.007,1.854,0.014,2.779,0.021c5.49,0.004,10.981,0.008,16.472,0.012C58.833,33.486,59.777,33.485,60.722,33.483z"/>
	<path fill-rule="evenodd" clip-rule="evenodd" fill="#4C4E4E" d="M23.5,50.583c6.019,2.59,12.326,3.985,18.834,4.549
		c1.031,0.09,2.062,0.176,3.092,0.264c0.029,0.377,0.125,0.762,0.075,1.129c-0.187,1.367,0.342,1.893,1.739,1.756
		c1.119-0.111,2.259,0.008,3.389-0.023c2.948-0.084,2.948-0.096,3.251-2.854c6.021-0.184,11.872-1.293,17.577-3.211
		c1.422-0.477,2.864-0.896,4.297-1.34c0.013,6.536,0.042,13.071,0.031,19.606c-0.003,1.926-0.942,2.842-2.877,2.846
		c-12.408,0.016-24.816,0.012-37.225,0.016c-3.03,0-6.061,0.012-9.091-0.002c-2.159-0.01-3.086-0.982-3.091-3.27
		c-0.013-5.92-0.005-11.84-0.005-17.76C23.497,51.72,23.499,51.15,23.5,50.583z"/>
	<path fill-rule="evenodd" clip-rule="evenodd" fill="#E6E6E6" d="M53.88,55.403c-0.303,2.758-0.303,2.77-3.251,2.854
		c-1.13,0.031-2.27-0.088-3.389,0.023c-1.397,0.137-1.926-0.389-1.739-1.756c0.05-0.367-0.046-0.752-0.075-1.129
		c0.184-2.584,0.184-2.582,2.817-2.58c1.277,0,2.563,0.1,3.829-0.025c1.422-0.141,1.86,0.508,1.801,1.771
		C53.859,54.841,53.877,55.122,53.88,55.403z M52.289,56.841c0.421-2.586,0.421-2.586-1.93-2.586c-0.805,0-1.611,0.043-2.412-0.012
		c-0.861-0.059-1.206,0.264-1.148,1.137c0.049,0.732-0.036,1.475,1.04,1.465C49.3,56.831,50.762,56.841,52.289,56.841z"/>
	<path fill-rule="evenodd" clip-rule="evenodd" fill="#A0CCCC" d="M52.289,56.841c-1.527,0-2.989-0.01-4.45,0.004
		c-1.076,0.01-0.991-0.732-1.04-1.465c-0.058-0.873,0.287-1.195,1.148-1.137c0.801,0.055,1.607,0.012,2.412,0.012
		C52.71,54.255,52.71,54.255,52.289,56.841z"/>
</g>
</svg>
