<?xml version="1.0" encoding="utf-8"?>
<!-- Generator: Adobe Illustrator 16.0.0, SVG Export Plug-In . SVG Version: 6.00 Build 0)  -->
<!DOCTYPE svg PUBLIC "-//W3C//DTD SVG 1.1//EN" "http://www.w3.org/Graphics/SVG/1.1/DTD/svg11.dtd">
<svg version="1.1" id="Capa_1" xmlns="http://www.w3.org/2000/svg" xmlns:xlink="http://www.w3.org/1999/xlink" x="0px" y="0px"
	 width="100px" height="100px" viewBox="0 0 100 100" enable-background="new 0 0 100 100" xml:space="preserve">
<g>
	<path fill-rule="evenodd" clip-rule="evenodd" fill="#F3AA03" d="M97.295,50.227c0.123,25.924-21.061,47.243-47.27,47.418
		C23.326,97.823,2.072,75.923,2.072,50.07c0-26.068,21.45-47.583,47.467-47.696C75.468,2.261,97.646,23.541,97.295,50.227z
		 M57.771,22.527c-8.947-0.003-17.895-0.014-26.842-0.004c-2.184,0.002-3.185,1.016-3.24,3.226
		c-0.021,0.847,0.043,1.696,0.042,2.544c-0.008,15.284-0.032,30.568-0.017,45.853c0.003,2.621,0.954,3.484,3.539,3.484
		c12.119,0.004,24.238,0.008,36.357,0.008c3.373,0,4.097-0.713,4.097-4.061c0-15.244-0.061-30.487,0.021-45.729
		c0.024-4.686-0.308-5.496-5.217-5.323C63.599,22.525,60.685,22.526,57.771,22.527z M15.669,74.333
		c-1.828-0.553-2.062,0.967-2.725,1.781c-0.229,0.281-0.271,0.715-0.398,1.078c0.15,0.066,0.303,0.133,0.454,0.199
		C13.848,76.421,14.695,75.448,15.669,74.333z"/>
	<path fill-rule="evenodd" clip-rule="evenodd" fill="#3F525D" d="M66.511,22.525c4.91-0.173,5.242,0.637,5.218,5.323
		c-0.081,15.243-0.021,30.485-0.021,45.729c0,3.348-0.724,4.061-4.097,4.061c-12.119,0-24.238-0.004-36.357-0.008
		c-2.585,0-3.536-0.863-3.539-3.484c-0.016-15.285,0.009-30.569,0.017-45.853c0.001-0.848-0.063-1.697-0.042-2.544
		c0.056-2.21,1.057-3.224,3.24-3.226c8.947-0.009,17.895,0.001,26.842,0.004c0.077,0.549,0.218,1.097,0.225,1.646
		c0.028,2.574,0.021,5.149,0.025,7.724c-0.016,0.039-0.03,0.079-0.046,0.119c0.021-0.036,0.039-0.071,0.06-0.106
		c0.969-0.559,1.989-1.046,2.891-1.698c0.798-0.577,1.379-0.74,2.223-0.018c0.823,0.705,1.851,1.171,3.1,1.933
		c0-0.955-0.016-1.548,0.003-2.14C66.332,27.499,66.424,25.012,66.511,22.525z M56.06,51.665c0-0.053,0.001-0.105,0.001-0.156
		c0.994,0,1.988,0,2.983,0c3.205-0.002,3.183,0,2.981-3.276c-0.045-0.732-0.287-0.991-1.014-0.989
		c-7.588,0.015-15.176,0.001-22.763,0.032c-0.318,0.001-0.887,0.339-0.908,0.562c-0.099,1.032-0.118,2.087,0.003,3.114
		c0.032,0.273,0.662,0.68,1.021,0.682C44.263,51.677,50.161,51.665,56.06,51.665z M49.868,37.588
		c-2.049,0.025-3.536,1.637-3.496,3.79c0.03,1.676,1.822,3.363,3.507,3.301c1.806-0.066,3.339-1.789,3.312-3.721
		C53.166,39.18,51.575,37.566,49.868,37.588z M47.648,54.075c-1.464,0-2.932-0.057-4.391,0.027
		c-0.586,0.033-1.629-0.531-1.671,0.648c-0.043,1.219,1.025,0.709,1.603,0.717c3.494,0.049,6.99,0.025,10.485,0.023
		c1.167,0,2.336,0.033,3.5-0.027c0.28-0.014,0.545-0.34,0.817-0.523c-0.25-0.283-0.453-0.652-0.766-0.82
		c-0.259-0.139-0.646-0.045-0.977-0.045C53.384,54.075,50.517,54.075,47.648,54.075z M49.765,70.562
		c-1.041,0-2.088-0.057-3.122,0.031c-0.372,0.033-0.715,0.42-1.07,0.645c0.334,0.246,0.661,0.695,1.003,0.707
		c2.081,0.066,4.166,0.064,6.248,0c0.316-0.01,0.619-0.465,0.929-0.713c-0.334-0.223-0.655-0.607-1.007-0.639
		C51.759,70.505,50.76,70.563,49.765,70.562z"/>
	<path fill-rule="evenodd" clip-rule="evenodd" fill="#EA6A46" d="M58.021,31.896c-0.005-2.575,0.003-5.149-0.025-7.724
		c-0.007-0.549-0.147-1.097-0.225-1.646c2.913-0.001,5.827-0.001,8.74-0.002c-0.088,2.487-0.18,4.974-0.261,7.461
		c-0.019,0.592-0.003,1.185-0.003,2.14c-1.249-0.761-2.276-1.228-3.1-1.933c-0.844-0.723-1.425-0.559-2.223,0.018
		c-0.901,0.652-1.922,1.139-2.891,1.698L58.021,31.896z"/>
	<path fill-rule="evenodd" clip-rule="evenodd" fill="#556E7B" d="M56.06,51.665c-5.898,0-11.797,0.012-17.695-0.031
		c-0.358-0.002-0.988-0.409-1.021-0.682c-0.121-1.026-0.102-2.082-0.003-3.114c0.021-0.222,0.59-0.56,0.908-0.562
		c7.587-0.031,15.175-0.018,22.763-0.032c0.727-0.002,0.969,0.257,1.014,0.989c0.201,3.276,0.224,3.274-2.981,3.276
		c-0.995,0-1.989,0-2.983,0C56.061,51.56,56.06,51.612,56.06,51.665z"/>
	<path fill-rule="evenodd" clip-rule="evenodd" fill="#556E7B" d="M49.868,37.588c1.707-0.021,3.298,1.592,3.322,3.37
		c0.027,1.932-1.506,3.655-3.312,3.721c-1.685,0.062-3.477-1.625-3.507-3.301C46.332,39.225,47.819,37.613,49.868,37.588z"/>
	<path fill-rule="evenodd" clip-rule="evenodd" fill="#556E7B" d="M47.648,54.075c2.868,0,5.735,0,8.602,0
		c0.331,0,0.718-0.094,0.977,0.045c0.312,0.168,0.516,0.537,0.766,0.82c-0.272,0.184-0.537,0.51-0.817,0.523
		c-1.164,0.061-2.333,0.027-3.5,0.027c-3.495,0.002-6.991,0.025-10.485-0.023c-0.577-0.008-1.646,0.502-1.603-0.717
		c0.042-1.18,1.085-0.615,1.671-0.648C44.717,54.019,46.185,54.075,47.648,54.075z"/>
	<path fill-rule="evenodd" clip-rule="evenodd" fill="#556E7B" d="M49.765,70.563c0.995,0,1.994-0.059,2.98,0.029
		c0.352,0.031,0.673,0.416,1.007,0.639c-0.31,0.248-0.612,0.703-0.929,0.713c-2.082,0.064-4.167,0.066-6.248,0
		c-0.342-0.012-0.669-0.461-1.003-0.707c0.355-0.225,0.698-0.611,1.07-0.645C47.677,70.505,48.724,70.562,49.765,70.563z"/>
	<path fill-rule="evenodd" clip-rule="evenodd" fill="#EA6A46" d="M58.035,31.909c-0.021,0.035-0.039,0.071-0.06,0.106
		c0.016-0.04,0.03-0.08,0.046-0.119L58.035,31.909z"/>
</g>
</svg>
