<?xml version="1.0" encoding="utf-8"?>
<!-- Generator: Adobe Illustrator 16.0.0, SVG Export Plug-In . SVG Version: 6.00 Build 0)  -->
<!DOCTYPE svg PUBLIC "-//W3C//DTD SVG 1.1//EN" "http://www.w3.org/Graphics/SVG/1.1/DTD/svg11.dtd">
<svg version="1.1" id="Capa_1" xmlns="http://www.w3.org/2000/svg" xmlns:xlink="http://www.w3.org/1999/xlink" x="0px" y="0px"
	 width="100px" height="100px" viewBox="0 0 100 100" enable-background="new 0 0 100 100" xml:space="preserve">
<rect x="24" y="18" fill-rule="evenodd" clip-rule="evenodd" fill="#FFFFFF" width="53" height="68"/>
<g>
	<path fill-rule="evenodd" clip-rule="evenodd" fill="#EE560E" d="M1.713,49.635C1.612,23.533,22.721,2.342,48.715,2.023
		c26.732-0.328,48.13,21.458,48.277,47.424c0.148,26.137-21.536,47.948-47.74,47.887C23.5,97.273,1.545,76.277,1.713,49.635z
		 M70.008,49.75c0.002,0,0.004,0,0.006,0c0-8.049,0.004-16.099-0.002-24.148c-0.001-2.602-0.999-3.563-3.615-3.562
		c-11.365,0.007-22.73,0.011-34.095,0.008c-2.69-0.001-3.709,0.946-3.711,3.65c-0.015,16.006-0.014,32.011-0.006,48.017
		c0.002,2.357,1.156,3.463,3.487,3.463c11.554,0.002,23.107,0.006,34.661,0.01c2.271,0.002,3.274-0.998,3.274-3.289
		C70.01,65.85,70.008,57.799,70.008,49.75z"/>
	<path fill-rule="evenodd" clip-rule="evenodd" fill="#45535B" d="M70.008,49.75c0,8.049,0.002,16.1,0,24.149
		c0,2.291-1.003,3.291-3.274,3.289c-11.554-0.004-23.107-0.008-34.661-0.01c-2.331,0-3.485-1.105-3.487-3.463
		c-0.008-16.006-0.009-32.011,0.006-48.017c0.002-2.705,1.021-3.651,3.711-3.65c11.364,0.003,22.729,0,34.095-0.008
		c2.616-0.002,3.614,0.959,3.615,3.562c0.006,8.049,0.002,16.099,0.002,24.148C70.012,49.75,70.01,49.75,70.008,49.75z
		 M32.85,71.582c11.007,0,21.909,0,32.93,0c0-15.125,0-30.136,0-45.171c-11.036,0-21.981,0-32.93,0
		C32.85,41.514,32.85,56.504,32.85,71.582z M48.183,75.166c0.003,0.033,0.005,0.068,0.008,0.102
		c1.686-0.119,3.374-0.217,5.056-0.383c0.286-0.027,0.543-0.346,0.813-0.529c-0.26-0.195-0.518-0.557-0.78-0.561
		c-2.597-0.043-5.193-0.049-7.789-0.002c-0.331,0.008-0.655,0.375-0.983,0.576c0.329,0.266,0.634,0.715,0.99,0.76
		C46.38,75.24,47.286,75.166,48.183,75.166z"/>
	<path fill-rule="evenodd" clip-rule="evenodd" fill="none" d="M32.85,71.582c0-15.078,0-30.068,0-45.171c10.948,0,21.894,0,32.93,0
		c0,15.035,0,30.046,0,45.171C54.759,71.582,43.856,71.582,32.85,71.582z M63.126,41.335c0-3.701-0.052-7.241,0.028-10.778
		c0.028-1.218-0.385-1.5-1.53-1.494c-8.185,0.044-16.37,0.025-24.555,0.034c-0.455,0-0.91,0.058-1.368,0.089
		c0,4.12,0,8.106,0,12.149C44.847,41.335,53.871,41.335,63.126,41.335z M53.342,49.55c0-1.792,0-3.515,0-5.295
		c-2.76,0-5.426,0-8.119,0c0,1.825,0,3.545,0,5.295C47.974,49.55,50.609,49.55,53.342,49.55z M54.792,49.515c2.846,0,5.52,0,8.207,0
		c0-1.826,0-3.542,0-5.258c-2.8,0-5.473,0-8.207,0C54.792,46.054,54.792,47.737,54.792,49.515z M35.661,49.514
		c2.796,0,5.413,0,8.046,0c0-1.825,0-3.538,0-5.251c-2.742,0-5.362,0-8.046,0C35.661,46.056,35.661,47.734,35.661,49.514z
		 M58.956,68.936c0.52,0,1.039,0,1.559,0c2.723,0,2.669-0.002,2.704-2.693c0.016-1.213-0.496-1.596-1.598-1.57
		c-1.37,0.027-2.74-0.004-4.109,0.008c-3.11,0.027-2.821-0.5-2.844,3.059c-0.005,0.832,0.316,1.225,1.17,1.199
		C56.877,68.91,57.916,68.932,58.956,68.936z M43.434,64.678c-1.615,0-3.165,0-4.717,0c-3.331,0-3.308-0.002-3.108,3.285
		c0.045,0.742,0.307,0.99,1.021,0.98c2.034-0.027,4.069-0.029,6.104-0.002c1.002,0.014,1.215-0.557,1.117-1.375
		C43.746,66.682,43.599,65.803,43.434,64.678z M45.137,68.936c1.74,0,3.424,0.018,5.107-0.004c3.354-0.041,2.988,0.6,3.018-3.297
		c0.006-0.76-0.322-0.975-1.022-0.965c-1.931,0.025-3.862,0.023-5.793,0.002c-0.851-0.012-1.172,0.373-1.17,1.199
		C45.278,66.801,45.196,67.73,45.137,68.936z M56.589,56.43c1.795,0,3.593-0.057,5.384,0.02c1.059,0.045,1.252-0.416,1.247-1.34
		c-0.006-0.871-0.197-1.275-1.18-1.262c-3.59,0.047-7.18,0.049-10.77,0c-0.987-0.014-1.167,0.4-1.176,1.268
		c-0.011,0.932,0.203,1.379,1.252,1.334C53.091,56.373,54.842,56.428,56.589,56.43z M42.308,53.869c-1.939,0-3.879,0.02-5.817-0.008
		c-0.979-0.014-0.877,0.645-0.859,1.258c0.017,0.576-0.2,1.311,0.802,1.309c3.783-0.008,7.566,0.01,11.35-0.016
		c1.094-0.008,0.868-0.885,0.918-1.568c0.054-0.74-0.277-1-1.002-0.986C45.901,53.889,44.104,53.867,42.308,53.869z M49.778,58.686
		c0.098,0.174,0.194,0.35,0.292,0.525c0.37,0.02,0.741,0.057,1.111,0.057c3.734,0.004,7.469,0.016,11.202-0.031
		c0.269-0.002,0.531-0.453,0.797-0.697c-0.327-0.229-0.652-0.652-0.981-0.656c-3.687-0.049-7.374-0.061-11.06,0.006
		C50.682,57.896,50.231,58.406,49.778,58.686z M56.586,62.109c1.795,0,3.592,0.045,5.383-0.033c0.413-0.018,0.809-0.461,1.211-0.709
		c-0.378-0.225-0.754-0.639-1.136-0.643c-3.589-0.051-7.18-0.051-10.769-0.002c-0.384,0.004-0.762,0.418-1.142,0.641
		c0.402,0.25,0.797,0.693,1.21,0.713C53.088,62.156,54.838,62.109,56.586,62.109z M42.152,59.271c1.798,0,3.597,0.039,5.391-0.031
		c0.384-0.014,0.751-0.418,1.127-0.643c-0.387-0.25-0.771-0.707-1.16-0.713c-3.642-0.055-7.283-0.051-10.925-0.002
		c-0.318,0.006-0.632,0.453-0.947,0.695c0.327,0.23,0.647,0.648,0.982,0.662C38.463,59.305,40.308,59.271,42.152,59.271z
		 M42.071,60.695c-1.846,0-3.69-0.029-5.534,0.027c-0.304,0.01-0.597,0.395-0.895,0.605c0.248,0.26,0.493,0.74,0.744,0.744
		c3.689,0.047,7.38,0.053,11.068-0.004c0.315-0.004,0.624-0.512,0.936-0.787c-0.31-0.195-0.613-0.551-0.928-0.561
		C45.667,60.666,43.868,60.693,42.071,60.695z M58.903,52.443c1.137,0,2.275,0.045,3.406-0.031c0.303-0.02,0.58-0.408,0.869-0.629
		c-0.258-0.25-0.511-0.711-0.774-0.719c-2.271-0.057-4.544-0.059-6.814,0c-0.297,0.008-0.582,0.455-0.873,0.697
		c0.307,0.227,0.601,0.623,0.923,0.648C56.723,52.492,57.815,52.441,58.903,52.443z M49.213,51.029
		c-1.084,0-2.174-0.057-3.251,0.033c-0.329,0.027-0.625,0.455-0.937,0.701c0.281,0.227,0.558,0.641,0.844,0.648
		c2.168,0.055,4.338,0.055,6.505,0.002c0.294-0.008,0.577-0.412,0.864-0.633c-0.305-0.25-0.592-0.689-0.917-0.719
		C51.293,50.969,50.25,51.029,49.213,51.029z M39.817,51.031c-1.134,0-2.27-0.039-3.4,0.027c-0.268,0.016-0.689,0.352-0.725,0.588
		c-0.033,0.23,0.331,0.746,0.529,0.75c2.313,0.049,4.63,0.047,6.943-0.014c0.23-0.006,0.448-0.484,0.673-0.742
		c-0.253-0.203-0.497-0.564-0.761-0.58C41.994,50.993,40.905,51.031,39.817,51.031z"/>
	<path fill-rule="evenodd" clip-rule="evenodd" fill="#EA6A46" d="M53.342,49.55c-2.732,0-5.368,0-8.119,0c0-1.75,0-3.47,0-5.295
		c2.693,0,5.359,0,8.119,0C53.342,46.036,53.342,47.758,53.342,49.55z"/>
	<path fill-rule="evenodd" clip-rule="evenodd" fill="#EA6A46" d="M54.792,49.515c0-1.778,0-3.461,0-5.258c2.734,0,5.407,0,8.207,0
		c0,1.716,0,3.432,0,5.258C60.312,49.515,57.638,49.515,54.792,49.515z"/>
	<path fill-rule="evenodd" clip-rule="evenodd" fill="#EA6A46" d="M35.661,49.514c0-1.78,0-3.458,0-5.251c2.684,0,5.304,0,8.046,0
		c0,1.713,0,3.426,0,5.251C41.074,49.514,38.457,49.514,35.661,49.514z"/>
	<path fill-rule="evenodd" clip-rule="evenodd" fill="#E6E6E6" d="M56.589,56.428c-1.747,0-3.498-0.055-5.242,0.021
		c-1.049,0.045-1.263-0.402-1.252-1.334c0.009-0.867,0.188-1.281,1.176-1.268c3.59,0.049,7.18,0.047,10.77,0
		c0.982-0.014,1.174,0.391,1.18,1.262c0.005,0.924-0.188,1.385-1.247,1.34C60.182,56.373,58.384,56.43,56.589,56.428z"/>
	<path fill-rule="evenodd" clip-rule="evenodd" fill="#E6E6E6" d="M42.308,53.869c1.797-0.002,3.594,0.02,5.391-0.012
		c0.725-0.014,1.056,0.246,1.002,0.986c-0.05,0.684,0.176,1.561-0.918,1.568c-3.783,0.025-7.566,0.008-11.35,0.016
		c-1.002,0.002-0.785-0.732-0.802-1.309c-0.018-0.613-0.119-1.271,0.859-1.258C38.429,53.889,40.368,53.869,42.308,53.869z"/>
	<path fill-rule="evenodd" clip-rule="evenodd" fill="#E6E6E6" d="M49.778,58.686c0.453-0.279,0.903-0.789,1.361-0.797
		c3.686-0.066,7.373-0.055,11.06-0.006c0.329,0.004,0.654,0.428,0.981,0.656c-0.266,0.244-0.528,0.695-0.797,0.697
		c-3.733,0.047-7.468,0.035-11.202,0.031c-0.37,0-0.741-0.037-1.111-0.057C49.973,59.035,49.876,58.859,49.778,58.686z"/>
	<path fill-rule="evenodd" clip-rule="evenodd" fill="#E6E6E6" d="M42.152,59.271c-1.845,0-3.689,0.033-5.532-0.031
		c-0.335-0.014-0.655-0.432-0.982-0.662c0.315-0.242,0.629-0.689,0.947-0.695c3.642-0.049,7.283-0.053,10.925,0.002
		c0.39,0.006,0.773,0.463,1.16,0.713c-0.376,0.225-0.743,0.629-1.127,0.643C45.749,59.311,43.95,59.271,42.152,59.271z"/>
	<path fill-rule="evenodd" clip-rule="evenodd" fill="#E6E6E6" d="M58.903,52.441c-1.088,0-2.181,0.051-3.264-0.031
		c-0.322-0.025-0.616-0.422-0.923-0.648c0.291-0.242,0.576-0.689,0.873-0.697c2.271-0.059,4.543-0.057,6.814,0
		c0.264,0.008,0.517,0.469,0.774,0.719c-0.289,0.221-0.566,0.609-0.869,0.629C61.179,52.488,60.04,52.443,58.903,52.441z"/>
	<path fill-rule="evenodd" clip-rule="evenodd" fill="#E6E6E6" d="M49.213,51.029c1.037,0,2.08-0.06,3.108,0.033
		c0.325,0.029,0.612,0.469,0.917,0.719c-0.287,0.221-0.57,0.625-0.864,0.633c-2.167,0.053-4.337,0.053-6.505-0.002
		c-0.286-0.008-0.562-0.422-0.844-0.648c0.312-0.246,0.607-0.674,0.937-0.701C47.039,50.972,48.129,51.029,49.213,51.029z"/>
	<path fill-rule="evenodd" clip-rule="evenodd" fill="#E6E6E6" d="M39.817,51.031c1.088,0,2.177-0.039,3.26,0.029
		c0.264,0.016,0.508,0.377,0.761,0.58c-0.225,0.258-0.442,0.736-0.673,0.742c-2.313,0.061-4.63,0.062-6.943,0.014
		c-0.198-0.004-0.562-0.52-0.529-0.75c0.035-0.236,0.457-0.572,0.725-0.588C37.548,50.993,38.684,51.031,39.817,51.031z"/>
</g>
</svg>
